<?xml version="1.0" encoding="UTF-8" standalone="no"?><!DOCTYPE svg PUBLIC "-//W3C//DTD SVG 1.1//EN" "http://www.w3.org/Graphics/SVG/1.1/DTD/svg11.dtd"><svg width="100%" height="100%" viewBox="0 0 290 45" version="1.1" xmlns="http://www.w3.org/2000/svg" xmlns:xlink="http://www.w3.org/1999/xlink" xml:space="preserve" xmlns:serif="http://www.serif.com/" style="fill-rule:evenodd;clip-rule:evenodd;stroke-linejoin:round;stroke-miterlimit:2;"><g id="_2017factsheets_orr" serif:id="2017factsheets_orr"><g id="g193"><g id="g195"><clipPath id="_clip1"><rect x="-0" y="-0.001" width="289.44" height="44.789"/></clipPath><g clip-path="url(#_clip1)"><g id="g201"><path id="path203" d="M4.931,4.987l-1.015,-3.319l-1.007,3.319l2.021,0Zm2.479,2.623c0.216,0.045 0.371,0.239 0.371,0.459c0,0.207 -0.169,0.377 -0.379,0.377l-1.937,0c-0.211,0 -0.381,-0.171 -0.381,-0.377c0,-0.22 0.157,-0.409 0.371,-0.451l0.321,-0.065l-0.568,-1.725l-2.584,0l-0.549,1.725l0.292,0.065c0.215,0.045 0.371,0.235 0.371,0.451c0,0.207 -0.171,0.377 -0.379,0.377l-1.756,0c-0.208,0 -0.379,-0.171 -0.379,-0.377c0,-0.22 0.155,-0.417 0.371,-0.459l0.323,-0.064l2.213,-6.452c0.136,-0.391 0.507,-0.652 0.927,-0.652c0.413,0 0.788,0.261 0.916,0.655l2.116,6.449l0.321,0.064Z" style="fill:#fff;fill-rule:nonzero;"/></g><g id="g205"><path id="path207" d="M11.237,7.572c1.832,0 2.839,-1.023 2.839,-3.084c0,-2.12 -0.957,-3.001 -2.869,-3.001l-0.764,0l0,6.085l0.795,0Zm-2.048,-6.059l-0.461,-0.08c-0.216,-0.035 -0.375,-0.223 -0.375,-0.443c0,-0.208 0.171,-0.379 0.379,-0.379l2.561,0c2.631,0 4.16,1.132 4.16,3.852c0,2.945 -1.995,3.983 -4.216,3.983l-2.505,0c-0.208,0 -0.379,-0.171 -0.379,-0.383c0,-0.216 0.159,-0.401 0.375,-0.44l0.461,-0.079l-0,-6.032Z" style="fill:#fff;fill-rule:nonzero;"/></g><g id="g209"><path id="path211" d="M18.424,0.613c0.379,0 0.719,0.223 0.867,0.575l1.817,4.323l1.835,-4.323c0.152,-0.352 0.492,-0.575 0.875,-0.575l1.688,0c0.212,0 0.381,0.169 0.381,0.379c0,0.219 -0.159,0.408 -0.375,0.443l-0.488,0.08l0,6.032l0.471,0.079c0.215,0.035 0.373,0.224 0.373,0.44c0,0.211 -0.169,0.381 -0.377,0.381l-2.177,0c-0.212,0 -0.381,-0.171 -0.381,-0.381c0,-0.216 0.163,-0.405 0.373,-0.44l0.475,-0.079l0,-5.617l-0.008,-0.003l-1.976,4.455c-0.136,0.305 -0.439,0.499 -0.772,0.499c-0.34,0 -0.643,-0.193 -0.776,-0.499l-1.911,-4.376l-0.008,0.004l0,5.537l0.469,0.079c0.216,0.035 0.375,0.224 0.375,0.44c0,0.211 -0.171,0.381 -0.379,0.381l-1.997,0c-0.209,0 -0.38,-0.171 -0.38,-0.381c0,-0.216 0.16,-0.405 0.376,-0.44l0.495,-0.079l0,-6.032l-0.488,-0.08c-0.216,-0.035 -0.375,-0.224 -0.375,-0.443c0,-0.209 0.171,-0.379 0.379,-0.379l1.62,-0Z" style="fill:#fff;fill-rule:nonzero;"/></g><g id="g213"><path id="path215" d="M27.804,7.546l0,-6.033l-0.496,-0.079c-0.215,-0.035 -0.375,-0.223 -0.375,-0.443c0,-0.208 0.171,-0.379 0.379,-0.379l2.233,0c0.208,0 0.379,0.171 0.379,0.379c0,0.22 -0.159,0.408 -0.375,0.443l-0.492,0.079l0,6.033l0.492,0.079c0.216,0.035 0.375,0.224 0.375,0.44c0,0.212 -0.171,0.383 -0.379,0.383l-2.233,0c-0.208,0 -0.379,-0.171 -0.379,-0.383c0,-0.216 0.16,-0.405 0.375,-0.44l0.496,-0.079Z" style="fill:#fff;fill-rule:nonzero;"/></g><g id="g217"><path id="path219" d="M36.649,1.513l-0.504,-0.084c-0.215,-0.033 -0.375,-0.219 -0.375,-0.439c0,-0.212 0.171,-0.381 0.379,-0.381l1.999,0c0.212,-0 0.383,0.169 0.383,0.381c0,0.22 -0.159,0.405 -0.375,0.443l-0.461,0.08l0,6.429c0,0.323 -0.261,0.584 -0.588,0.584c-0.363,0 -0.688,-0.189 -0.871,-0.508l-3.333,-5.832l0,5.36l0.492,0.079c0.216,0.035 0.375,0.224 0.375,0.439c0,0.212 -0.171,0.383 -0.379,0.383l-2.032,0c-0.208,0 -0.379,-0.171 -0.379,-0.383c0,-0.215 0.159,-0.404 0.375,-0.439l0.496,-0.079l0,-6.033l-0.496,-0.084c-0.216,-0.033 -0.375,-0.219 -0.375,-0.439c0,-0.212 0.171,-0.381 0.379,-0.381l1.317,0c0.389,0 0.733,0.208 0.92,0.552l3.053,5.616l0,-5.264Z" style="fill:#fff;fill-rule:nonzero;"/></g><g id="g221"><path id="path223" d="M40.34,7.546l0,-6.033l-0.496,-0.079c-0.215,-0.035 -0.375,-0.223 -0.375,-0.443c0,-0.208 0.171,-0.379 0.379,-0.379l2.233,0c0.208,0 0.379,0.171 0.379,0.379c0,0.22 -0.16,0.408 -0.375,0.443l-0.492,0.079l0,6.033l0.492,0.079c0.215,0.035 0.375,0.224 0.375,0.44c0,0.212 -0.171,0.383 -0.379,0.383l-2.233,0c-0.208,0 -0.379,-0.171 -0.379,-0.383c0,-0.216 0.16,-0.405 0.375,-0.44l0.496,-0.079Z" style="fill:#fff;fill-rule:nonzero;"/></g><g id="g225"><path id="path227" d="M46.277,1.324c-0.787,0 -1.385,0.375 -1.385,1.063c0,1.733 3.649,1.389 3.649,3.888c0,1.476 -1.167,2.341 -2.703,2.341c-0.803,0 -2.289,-0.099 -2.289,-1.153l0,-0.44c0,-0.276 0.227,-0.503 0.507,-0.503c0.299,0 0.564,0.197 0.651,0.484l0.179,0.583c0.163,0.068 0.457,0.14 0.688,0.14c0.863,0 1.707,-0.317 1.707,-1.199c0,-1.764 -3.632,-1.468 -3.632,-3.925c0,-1.316 1.048,-2.16 2.584,-2.16c0.681,0 2.033,0.128 2.033,1.097l0,0.443c0,0.276 -0.228,0.504 -0.504,0.504c-0.299,0 -0.564,-0.197 -0.652,-0.481l-0.177,-0.583c-0.159,-0.064 -0.424,-0.099 -0.655,-0.099" style="fill:#fff;fill-rule:nonzero;"/></g><g id="g229"><path id="path231" d="M49.224,1.237c0,-0.344 0.28,-0.624 0.625,-0.624l5.34,0c0.344,0 0.624,0.28 0.624,0.624l0,0.587c0,0.272 -0.22,0.492 -0.488,0.492c-0.28,0 -0.533,-0.189 -0.607,-0.469l-0.097,-0.379l-1.476,0l0,6.079l0.537,0.083c0.216,0.033 0.375,0.22 0.375,0.435c0,0.212 -0.171,0.383 -0.379,0.383l-2.324,0c-0.212,0 -0.383,-0.171 -0.383,-0.383c0,-0.215 0.164,-0.401 0.38,-0.435l0.54,-0.083l0,-6.079l-1.475,0l-0.096,0.379c-0.072,0.28 -0.325,0.469 -0.605,0.469c-0.272,0 -0.492,-0.22 -0.492,-0.492l0,-0.587Z" style="fill:#fff;fill-rule:nonzero;"/></g><g id="g233"><path id="path235" d="M58.641,1.487l0,6.059l0.504,0.08c0.215,0.035 0.375,0.223 0.375,0.439c0,0.212 -0.171,0.383 -0.379,0.383l-2.241,0c-0.212,0 -0.381,-0.171 -0.381,-0.383c0,-0.216 0.159,-0.404 0.375,-0.439l0.495,-0.08l0,-6.032l-0.495,-0.08c-0.216,-0.033 -0.375,-0.223 -0.375,-0.443c0,-0.208 0.169,-0.379 0.381,-0.379l2.779,0c1.536,0 2.543,0.508 2.543,1.957c0,1.056 -0.663,1.771 -1.711,1.995l0,0.007c0.659,0.109 0.924,0.673 1.325,1.56c0.507,1.12 0.676,1.495 1.289,1.536c0.213,0.016 0.387,0.177 0.387,0.391c0,0.215 -0.173,0.389 -0.387,0.389l-0.627,0c-1.257,0 -1.519,-1.309 -1.807,-1.919c-0.439,-0.928 -0.764,-1.404 -1.427,-1.552c-0.208,-0.045 -0.427,-0.235 -0.427,-0.473c0,-0.239 0.189,-0.427 0.465,-0.443c0.995,-0.06 1.597,-0.431 1.597,-1.423c0,-0.837 -0.629,-1.151 -1.707,-1.151l-0.553,0Z" style="fill:#fff;fill-rule:nonzero;"/></g><g id="g237"><path id="path239" d="M67.979,4.987l-1.015,-3.319l-1.007,3.319l2.021,0Zm2.479,2.623c0.216,0.045 0.371,0.239 0.371,0.459c0,0.207 -0.169,0.377 -0.379,0.377l-1.937,0c-0.211,0 -0.381,-0.171 -0.381,-0.377c0,-0.22 0.157,-0.409 0.371,-0.451l0.321,-0.065l-0.568,-1.725l-2.584,0l-0.549,1.725l0.292,0.065c0.215,0.045 0.371,0.235 0.371,0.451c0,0.207 -0.171,0.377 -0.379,0.377l-1.756,0c-0.208,0 -0.379,-0.171 -0.379,-0.377c0,-0.22 0.155,-0.417 0.371,-0.459l0.323,-0.064l2.213,-6.452c0.136,-0.391 0.507,-0.652 0.927,-0.652c0.413,0 0.788,0.261 0.916,0.655l2.116,6.449l0.321,0.064Z" style="fill:#fff;fill-rule:nonzero;"/></g><g id="g241"><path id="path243" d="M70.533,1.237c0,-0.344 0.28,-0.624 0.625,-0.624l5.34,0c0.344,0 0.624,0.28 0.624,0.624l0,0.587c0,0.272 -0.22,0.492 -0.488,0.492c-0.28,0 -0.533,-0.189 -0.607,-0.469l-0.097,-0.379l-1.476,0l0,6.079l0.537,0.083c0.216,0.033 0.375,0.22 0.375,0.435c0,0.212 -0.171,0.383 -0.379,0.383l-2.324,0c-0.212,0 -0.383,-0.171 -0.383,-0.383c0,-0.215 0.164,-0.401 0.38,-0.435l0.54,-0.083l0,-6.079l-1.475,0l-0.096,0.379c-0.072,0.28 -0.325,0.469 -0.605,0.469c-0.272,0 -0.492,-0.22 -0.492,-0.492l0,-0.587Z" style="fill:#fff;fill-rule:nonzero;"/></g><g id="g245"><path id="path247" d="M78.698,7.546l0,-6.033l-0.496,-0.079c-0.215,-0.035 -0.375,-0.223 -0.375,-0.443c0,-0.208 0.171,-0.379 0.379,-0.379l2.233,0c0.208,0 0.379,0.171 0.379,0.379c0,0.22 -0.159,0.408 -0.375,0.443l-0.492,0.079l0,6.033l0.492,0.079c0.216,0.035 0.375,0.224 0.375,0.44c0,0.212 -0.171,0.383 -0.379,0.383l-2.233,0c-0.208,0 -0.379,-0.171 -0.379,-0.383c0,-0.216 0.16,-0.405 0.375,-0.44l0.496,-0.079Z" style="fill:#fff;fill-rule:nonzero;"/></g><g id="g249"><path id="path251" d="M85.372,1.377c-1.552,0 -2.191,1.293 -2.191,3.152c0,1.84 0.583,3.157 2.115,3.157c1.544,0 2.188,-1.303 2.188,-3.157c0,-1.839 -0.583,-3.152 -2.112,-3.152m0.027,-0.935c2.207,0 3.463,1.563 3.463,3.92c0,2.437 -1.249,4.255 -3.592,4.255c-2.199,0 -3.463,-1.597 -3.463,-3.925c0,-2.46 1.245,-4.249 3.592,-4.249" style="fill:#fff;fill-rule:nonzero;"/></g><g id="g253"><path id="path255" d="M95.529,1.513l-0.504,-0.084c-0.215,-0.033 -0.375,-0.219 -0.375,-0.439c0,-0.212 0.171,-0.381 0.379,-0.381l1.999,0c0.212,-0 0.383,0.169 0.383,0.381c0,0.22 -0.159,0.405 -0.375,0.443l-0.461,0.08l0,6.429c0,0.323 -0.261,0.584 -0.588,0.584c-0.363,0 -0.688,-0.189 -0.871,-0.508l-3.333,-5.832l0,5.36l0.492,0.079c0.216,0.035 0.375,0.224 0.375,0.439c0,0.212 -0.171,0.383 -0.379,0.383l-2.032,0c-0.208,0 -0.379,-0.171 -0.379,-0.383c0,-0.215 0.159,-0.404 0.375,-0.439l0.496,-0.079l0,-6.033l-0.496,-0.084c-0.216,-0.033 -0.375,-0.219 -0.375,-0.439c0,-0.212 0.171,-0.381 0.379,-0.381l1.317,0c0.389,0 0.733,0.208 0.92,0.552l3.053,5.616l0,-5.264Z" style="fill:#fff;fill-rule:nonzero;"/></g><g id="g257"><path id="path259" d="M103.728,4.893l0,2.653l0.571,0.083c0.216,0.033 0.376,0.22 0.376,0.435c0,0.212 -0.171,0.383 -0.38,0.383l-2.308,0c-0.212,0 -0.383,-0.171 -0.383,-0.383c0,-0.215 0.16,-0.404 0.376,-0.439l0.499,-0.079l0,-6.033l-0.499,-0.079c-0.216,-0.035 -0.376,-0.224 -0.376,-0.443c0,-0.209 0.171,-0.379 0.383,-0.379l4.493,0c0.344,0 0.624,0.28 0.624,0.624l0,0.613c0,0.249 -0.201,0.451 -0.447,0.451c-0.257,0 -0.492,-0.171 -0.568,-0.428l-0.113,-0.387l-2.248,0l0,2.483l1.964,0c0.253,0 0.461,0.209 0.461,0.463c0,0.253 -0.208,0.461 -0.461,0.461l-1.964,0Z" style="fill:#fff;fill-rule:nonzero;"/></g><g id="g261"><path id="path263" d="M111.395,1.377c-1.552,0 -2.191,1.293 -2.191,3.152c0,1.84 0.583,3.157 2.115,3.157c1.544,0 2.188,-1.303 2.188,-3.157c0,-1.839 -0.583,-3.152 -2.112,-3.152m0.027,-0.935c2.207,0 3.463,1.563 3.463,3.92c0,2.437 -1.249,4.255 -3.592,4.255c-2.199,0 -3.463,-1.597 -3.463,-3.925c0,-2.46 1.245,-4.249 3.592,-4.249" style="fill:#fff;fill-rule:nonzero;"/></g><g id="g265"><path id="path267" d="M118.006,1.487l0,6.059l0.503,0.08c0.216,0.035 0.376,0.223 0.376,0.439c0,0.212 -0.171,0.383 -0.38,0.383l-2.24,0c-0.212,0 -0.383,-0.171 -0.383,-0.383c0,-0.216 0.16,-0.404 0.376,-0.439l0.495,-0.08l0,-6.032l-0.495,-0.08c-0.216,-0.033 -0.376,-0.223 -0.376,-0.443c0,-0.208 0.171,-0.379 0.383,-0.379l2.777,0c1.537,0 2.544,0.508 2.544,1.957c0,1.056 -0.663,1.771 -1.711,1.995l0,0.007c0.659,0.109 0.924,0.673 1.324,1.56c0.507,1.12 0.677,1.495 1.291,1.536c0.212,0.016 0.387,0.177 0.387,0.391c0,0.215 -0.175,0.389 -0.387,0.389l-0.628,0c-1.256,0 -1.517,-1.309 -1.805,-1.919c-0.439,-0.928 -0.764,-1.404 -1.427,-1.552c-0.208,-0.045 -0.428,-0.235 -0.428,-0.473c0,-0.239 0.189,-0.427 0.467,-0.443c0.995,-0.06 1.596,-0.431 1.596,-1.423c0,-0.837 -0.628,-1.151 -1.707,-1.151l-0.552,0Z" style="fill:#fff;fill-rule:nonzero;"/></g><g id="g269"><path id="path271" d="M13.437,33.052l0,3.811c0,4.588 -2.295,7.209 -6.719,7.209c-4.424,0 -6.719,-2.621 -6.719,-7.209l0,-14.913c0,-4.588 2.295,-7.209 6.719,-7.209c4.424,0 6.719,2.621 6.719,7.209l0,2.787l-4.26,0l0,-3.073c0,-2.048 -0.903,-2.827 -2.336,-2.827c-1.433,0 -2.335,0.779 -2.335,2.827l0,15.487c0,2.048 0.901,2.785 2.335,2.785c1.433,0 2.336,-0.737 2.336,-2.785l0,-4.097l4.26,0Z" style="fill:#fff;fill-rule:nonzero;"/></g><g id="g273"><path id="path275" d="M21.304,43.745l-4.507,0l0,-28.679l4.507,0l0,12.291l5.12,0l0,-12.291l4.589,0l0,28.679l-4.589,0l0,-12.291l-5.12,0l0,12.291Z" style="fill:#fff;fill-rule:nonzero;"/></g><rect id="path277" x="34.905" y="15.067" width="4.507" height="28.679" style="fill:#fff;fill-rule:nonzero;"/><g id="g279"><path id="path281" d="M43.304,15.067l4.507,0l0,24.581l7.415,0l0,4.097l-11.921,0l0,-28.679Z" style="fill:#fff;fill-rule:nonzero;"/></g><g id="g283"><path id="path285" d="M62.313,19.163l0,20.485l2.54,0c1.435,0 2.293,-0.739 2.293,-2.787l0,-14.912c0,-2.049 -0.859,-2.787 -2.293,-2.787l-2.54,0Zm-4.507,-4.097l7.128,0c4.507,0 6.719,2.5 6.719,7.089l0,14.503c0,4.588 -2.212,7.087 -6.719,7.087l-7.128,0l0,-28.679Z" style="fill:#fff;fill-rule:nonzero;"/></g><g id="g287"><path id="path289" d="M79.643,19.163l0,8.808l1.761,0c1.68,0 2.704,-0.737 2.704,-3.031l0,-2.827c0,-2.049 -0.696,-2.951 -2.295,-2.951l-2.171,0Zm4.916,24.581c-0.245,-0.737 -0.409,-1.188 -0.409,-3.523l0,-4.507c0,-2.664 -0.901,-3.647 -2.951,-3.647l-1.556,0l0,11.676l-4.507,0l0,-28.679l6.801,-0c4.669,0 6.677,2.172 6.677,6.597l0,2.253c0,2.949 -0.943,4.875 -2.951,5.817c2.253,0.941 2.992,3.113 2.992,6.104l0,4.424c0,1.393 0.04,2.417 0.491,3.483l-4.588,0Z" style="fill:#fff;fill-rule:nonzero;"/></g><g id="g291"><path id="path293" d="M96.687,27.152l6.187,0l0,4.097l-6.187,0l0,8.399l7.784,0l0,4.096l-12.291,0l0,-28.677l12.291,0l0,4.096l-7.784,0l0,7.989Z" style="fill:#fff;fill-rule:nonzero;"/></g><g id="g295"><path id="path297" d="M111.845,22.974l0,20.771l-4.056,0l0,-28.677l5.653,0l4.629,17.165l0,-17.165l4.015,0l0,28.677l-4.629,0l-5.612,-20.771Z" style="fill:#fff;fill-rule:nonzero;"/></g><g id="g299"><path id="path301" d="M139.958,44.788c1.505,0 2.971,-0.172 4.399,-0.509c1.423,-0.343 2.633,-0.747 3.625,-1.211c0.997,-0.459 2.031,-1.075 3.103,-1.849c1.073,-0.771 1.9,-1.416 2.469,-1.931c0.572,-0.509 1.885,-1.768 2.305,-1.884c0.421,-0.113 10.804,7.172 11.251,7.256c0.676,0.128 1.768,-1.117 0.803,-2.015c-0.727,-0.675 -9.064,-7.657 -8.704,-8.536c0.357,-0.769 9.337,-8.889 9.528,-9.056c1.543,-1.352 0.484,-3.043 -0.7,-2.399c-0.544,0.295 -16.471,12.859 -16.873,13.217c-0.403,0.36 -1.02,0.869 -1.853,1.523c-0.833,0.652 -1.595,1.159 -2.303,1.52c-0.708,0.363 -1.533,0.691 -2.488,0.993c-0.949,0.3 -1.899,0.452 -2.844,0.452c-2.128,0 -3.895,-0.665 -5.301,-2.003c-1.403,-1.333 -2.108,-2.947 -2.108,-4.835c0,-1.024 0.183,-1.992 0.541,-2.907c0.361,-0.913 0.943,-1.811 1.752,-2.696c0.796,-0.883 1.491,-1.58 2.075,-2.092c0.577,-0.512 1.433,-1.212 2.56,-2.093c0.317,-0.259 0.561,-0.453 0.723,-0.572l3.825,-3.043c0.22,-0.18 0.721,-0.577 1.501,-1.191c0.791,-0.613 1.336,-1.049 1.648,-1.309c0.308,-0.263 0.813,-0.693 1.503,-1.293c0.691,-0.605 1.207,-1.097 1.541,-1.48c0.331,-0.38 0.737,-0.881 1.229,-1.504c0.495,-0.619 0.855,-1.191 1.087,-1.703c0.227,-0.509 0.436,-1.088 0.616,-1.735c0.179,-0.637 0.273,-1.281 0.273,-1.923c0,-2.289 -0.915,-4.192 -2.747,-5.707c-1.821,-1.519 -4.253,-2.276 -7.283,-2.276c-3.436,0 -6.329,0.887 -8.677,2.668c-2.348,1.773 -3.523,4.069 -3.523,6.879c0,2.189 0.783,4.348 2.348,6.475c0.62,0.847 1.868,2.231 3.733,4.159c-0.079,0.061 -0.395,0.305 -0.949,0.737c-0.549,0.433 -0.949,0.739 -1.191,0.92c-0.239,0.181 -0.647,0.523 -1.233,1.024c-0.584,0.504 -1.021,0.912 -1.323,1.233c-0.299,0.324 -0.713,0.771 -1.233,1.343c-0.524,0.571 -0.937,1.089 -1.237,1.552c-0.299,0.461 -0.641,1.021 -1.011,1.684c-0.368,0.663 -0.66,1.299 -0.859,1.915c-0.197,0.611 -0.368,1.289 -0.511,2.031c-0.144,0.744 -0.209,1.497 -0.209,2.26c0,2.892 0.955,5.268 2.861,7.123c1.905,1.859 4.528,2.787 7.86,2.787m-0.976,-31.941c-0.393,-0.513 -0.669,-1.012 -0.819,-1.491c-0.144,-0.483 -0.221,-0.995 -0.221,-1.535c0,-1.491 0.656,-2.777 1.971,-3.872c1.313,-1.095 2.879,-1.641 4.683,-1.641c1.627,0 2.959,0.46 3.992,1.385c1.032,0.92 1.551,2.008 1.551,3.251c0,0.381 -0.049,0.747 -0.152,1.103c-0.096,0.348 -0.212,0.671 -0.328,0.963c-0.123,0.292 -0.339,0.619 -0.647,0.977c-0.313,0.361 -0.572,0.66 -0.788,0.887c-0.207,0.235 -0.568,0.557 -1.081,0.98c-0.513,0.421 -0.905,0.743 -1.175,0.964c-0.272,0.221 -0.759,0.599 -1.461,1.131c-0.705,0.532 -1.227,0.931 -1.565,1.192c-0.341,-0.364 -0.84,-0.871 -1.493,-1.525c-0.648,-0.648 -1.128,-1.148 -1.432,-1.489c-0.3,-0.339 -0.645,-0.765 -1.033,-1.279" style="fill:#fff;fill-rule:nonzero;"/></g><g id="g303"><path id="path305" d="M164.192,12.721c-1.037,-0.257 -2.084,-0.399 -3.125,-0.371c-3.667,0.104 -6.633,2.073 -7.389,4.908c-0.336,1.273 -0.308,2.717 0.065,3.957c-3.383,0.733 -6.153,3.255 -6.94,6.759c-0.6,4.584 0.953,7.688 1.381,7.813c0.427,0.123 0.741,-0.315 0.677,-0.82c-0.148,-1.208 -0.983,-3.632 0.689,-6.269c1.5,-2.36 4.672,-4.771 7.824,-5.213c0,0 -0.024,0.009 0.191,-0.025c0.213,-0.033 0.349,-0.407 0.303,-0.557l-0.048,-0.151c-0.009,-0.025 -0.767,-2.435 -0.321,-4.125c0.441,-1.652 2.189,-2.731 4.236,-2.905c5.443,-0.381 7.612,5.624 7.791,5.848c0.397,0.503 0.708,-0.119 0.708,-0.119c0.311,-0.452 -0.833,-7.364 -6.041,-8.729" style="fill:#fff;fill-rule:nonzero;"/></g><g id="g307"><path id="path309" d="M180.052,27.808l5.817,0l0,4.097l-5.817,0l0,11.839l-4.507,0l0,-28.677l11.921,0l0,4.097l-7.415,0l0,8.644Z" style="fill:#fff;fill-rule:nonzero;"/></g><g id="g311"><path id="path313" d="M194.023,34.65l4.343,0l-2.172,-14.503l-2.171,14.503Zm10.283,9.095l-4.548,0l-0.777,-5.203l-5.531,0l-0.779,5.203l-4.139,0l4.589,-28.677l6.596,0l4.588,28.677Z" style="fill:#fff;fill-rule:nonzero;"/></g><g id="g315"><path id="path317" d="M216.515,35.428l3.072,-20.361l6.268,0l0,28.677l-4.26,0l0,-20.565l-3.113,20.565l-4.261,0l-3.359,-20.279l0,20.279l-3.933,0l0,-28.677l6.268,0l3.319,20.361Z" style="fill:#fff;fill-rule:nonzero;"/></g><rect id="path319" x="229.748" y="15.067" width="4.507" height="28.679" style="fill:#fff;fill-rule:nonzero;"/><g id="g321"><path id="path323" d="M238.147,15.067l4.507,0l0,24.581l7.415,0l0,4.097l-11.921,0l0,-28.679Z" style="fill:#fff;fill-rule:nonzero;"/></g><rect id="path325" x="252.651" y="15.067" width="4.507" height="28.679" style="fill:#fff;fill-rule:nonzero;"/><g id="g327"><path id="path329" d="M265.555,27.152l6.187,0l0,4.097l-6.187,0l0,8.399l7.784,0l0,4.096l-12.291,0l0,-28.677l12.291,0l0,4.096l-7.784,0l0,7.989Z" style="fill:#fff;fill-rule:nonzero;"/></g><g id="g331"><path id="path333" d="M282.762,14.739c4.384,0 6.636,2.621 6.636,7.211l0,0.9l-4.26,0l0,-1.187c0,-2.048 -0.82,-2.827 -2.253,-2.827c-1.433,0 -2.253,0.779 -2.253,2.827c0,5.899 8.808,7.005 8.808,15.199c0,4.588 -2.293,7.211 -6.719,7.211c-4.425,0 -6.719,-2.623 -6.719,-7.211l0,-1.761l4.26,0l0,2.048c0,2.049 0.901,2.787 2.336,2.787c1.433,0 2.336,-0.737 2.336,-2.787c0,-5.899 -8.808,-7.005 -8.808,-15.199c0,-4.589 2.252,-7.211 6.636,-7.211" style="fill:#fff;fill-rule:nonzero;"/></g></g></g></g></g></svg>